<?xml version="1.0" encoding="UTF-8"?>
<!DOCTYPE svg PUBLIC "-//W3C//DTD SVG 1.1//EN" "http://www.w3.org/Graphics/SVG/1.1/DTD/svg11.dtd">
<!-- Creator: CorelDRAW X5 -->
<svg xmlns="http://www.w3.org/2000/svg" xml:space="preserve" width="11.4932mm" height="11.2094mm" style="shape-rendering:geometricPrecision; text-rendering:geometricPrecision; image-rendering:optimizeQuality; fill-rule:evenodd; clip-rule:evenodd"
viewBox="0 0 145 141"
 xmlns:xlink="http://www.w3.org/1999/xlink">
 <defs>
  <style type="text/css">
   <![CDATA[
    .fil0 {fill:#2F2C2A;fill-rule:nonzero}
   ]]>
  </style>
 </defs>
 <g id="__x0023_Layer_x0020_1">
  <metadata id="CorelCorpID_0Corel-Layer"/>
  <path class="fil0" d="M73 0c-40,0 -73,32 -73,73 0,32 21,59 50,69 4,1 5,-2 5,-3 0,-2 0,-6 0,-12 -20,4 -24,-10 -24,-10 -3,-8 -8,-11 -8,-11 -7,-5 0,-4 0,-4 7,1 11,7 11,7 6,11 17,8 21,6 1,-5 3,-8 5,-10 -16,-2 -33,-8 -33,-36 0,-8 3,-14 7,-19 -1,-2 -3,-9 1,-19 0,0 6,-2 20,7 6,-2 12,-2 18,-2 6,0 12,1 18,2 14,-9 20,-7 20,-7 4,10 1,17 1,19 5,5 7,12 7,19 0,28 -17,34 -33,36 3,2 5,7 5,13 0,10 0,18 0,20 0,2 1,4 5,3 29,-10 50,-37 50,-69 0,-40 -32,-73 -73,-73z"/>
 </g>
</svg>
